<?xml version="1.0" encoding="UTF-8" standalone="no"?>
<!-- Generator: Adobe Illustrator 24.0.0, SVG Export Plug-In . SVG Version: 6.00 Build 0)  -->

<svg
   xmlns:dc="http://purl.org/dc/elements/1.1/"
   xmlns:cc="http://creativecommons.org/ns#"
   xmlns:rdf="http://www.w3.org/1999/02/22-rdf-syntax-ns#"
   xmlns:svg="http://www.w3.org/2000/svg"
   xmlns="http://www.w3.org/2000/svg"
   xmlns:sodipodi="http://sodipodi.sourceforge.net/DTD/sodipodi-0.dtd"
   xmlns:inkscape="http://www.inkscape.org/namespaces/inkscape"
   version="1.1"
   id="Layer_1"
   x="0px"
   y="0px"
   viewBox="0 0 620.2 200.6"
   xml:space="preserve"
   sodipodi:docname="client-logo.svg"
   width="620.20001"
   height="200.60001"
   inkscape:version="0.92.3 (2405546, 2018-03-11)"><metadata
   id="metadata74"><rdf:RDF><cc:Work
       rdf:about=""><dc:format>image/svg+xml</dc:format><dc:type
         rdf:resource="http://purl.org/dc/dcmitype/StillImage" /><dc:title></dc:title></cc:Work></rdf:RDF></metadata><defs
   id="defs72" /><sodipodi:namedview
   pagecolor="#ffffff"
   bordercolor="#666666"
   borderopacity="1"
   objecttolerance="10"
   gridtolerance="10"
   guidetolerance="10"
   inkscape:pageopacity="0"
   inkscape:pageshadow="2"
   inkscape:window-width="1920"
   inkscape:window-height="1017"
   id="namedview70"
   showgrid="false"
   fit-margin-top="0"
   fit-margin-left="0"
   fit-margin-right="0"
   fit-margin-bottom="0"
   inkscape:zoom="1.3889939"
   inkscape:cx="310.2"
   inkscape:cy="100.25"
   inkscape:window-x="1912"
   inkscape:window-y="-8"
   inkscape:window-maximized="1"
   inkscape:current-layer="Layer_1" />
<style
   type="text/css"
   id="style2">
	.st0{fill:#CC0033;}
	.st1{fill:#FFCC00;}
	.st2{fill:#FFFFFF;}
	.st3{fill:none;}
</style>
<rect
   x="0"
   y="0"
   class="st0"
   width="620.20001"
   height="200.60001"
   id="rect4"
   style="display:inline;fill:#cc0033" />
<g
   id="g45"
   style="display:inline"
   transform="translate(-40.900002,-41)">
	<g
   id="Advance">
		<g
   id="g8">
			<path
   class="st1"
   d="m 169.9,82.8 h 20.7 l 5.1,62.5 H 175.1 L 175,135.1 h -23.6 l -7,10.2 h -21 z m 4.9,39.7 -0.4,-21 -14.4,21 z"
   id="path6"
   inkscape:connector-curvature="0"
   style="fill:#ffcc00" />
		</g>
		<path
   class="st1"
   d="m 236.1,145.3 h -25.4 c -12.1,0 -17,-9.9 -12.6,-24.6 4.4,-14.8 15.3,-24.6 27.2,-24.6 3.3,0 6.1,0.5 9.3,2 l 5,-15.3 h 16.7 z m -6.3,-32.5 c -1.9,-0.6 -3.6,-1 -5.2,-1 -4.5,0 -8.6,3.7 -10.1,9.2 -1.4,5.3 0.9,8.7 5.8,8.7 1.4,0 2,-0.3 4.3,-0.8 z"
   id="path10"
   inkscape:connector-curvature="0"
   style="fill:#ffcc00" />
		<path
   class="st1"
   d="m 252.4,96.9 h 17.9 l -1.8,25.7 17.3,-25.7 H 301 l -34,48.4 h -13.8 z"
   id="path12"
   inkscape:connector-curvature="0"
   style="fill:#ffcc00" />
		<path
   class="st1"
   d="m 323.3,146 c -8.6,0.6 -12.4,-0.4 -13.6,-4.5 -5,3.1 -8.6,4.7 -13.8,4.7 -9.5,0 -11.7,-5.6 -9.7,-11.8 0.9,-2.9 3,-5.9 5.9,-8.2 6.1,-5.1 17.9,-5.9 23.7,-9.8 1.3,-4.4 -0.1,-6.9 -4.8,-6 -6,1.2 -8.8,2.9 -17.6,8.2 l 4.5,-14.2 c 7.8,-4.8 14.3,-7.7 22,-8.2 9.8,-0.8 17.6,4.6 13.7,16.8 l -4.4,13.7 c -1.5,4.9 -1.7,6.3 3.1,6.4 z m -10.5,-20.4 c -4.2,2.6 -9.6,2.2 -11.2,7.5 -0.8,2.5 0.2,4.4 2.4,4.4 2.1,0 3.7,-1 6.2,-2.7 0,-0.9 0.3,-1.9 0.9,-3.6 z"
   id="path14"
   inkscape:connector-curvature="0"
   style="fill:#ffcc00" />
		<path
   class="st1"
   d="M 345.3,96.9 H 362 l -2.1,6.3 c 6.2,-5.1 10.6,-7.1 16,-7.1 9.3,0 12.5,6.5 9,17.2 l -10.3,32 H 358 l 8.5,-26.5 c 1.5,-4.9 0.7,-7.1 -2.6,-7.1 -2.7,0 -5.4,1.6 -8.4,5.2 l -9.1,28.3 h -16.7 z"
   id="path16"
   inkscape:connector-curvature="0"
   style="fill:#ffcc00" />
		<path
   class="st1"
   d="m 415.1,143.1 c -6.3,2.3 -9.9,3 -14.5,3 -14.2,0 -20.9,-10.2 -16.2,-24.7 3.9,-12.1 15.3,-25.3 31.8,-25.3 4.5,0 9.1,0.8 12.9,2.5 l -5.2,16 c -3.1,-1.9 -6.2,-2.8 -9.7,-2.8 -6,0 -11.2,3.8 -13.1,9.4 -1.7,5.5 1.4,9.3 7.5,9.3 3.1,0 6.1,-0.8 11.4,-3 z"
   id="path18"
   inkscape:connector-curvature="0"
   style="fill:#ffcc00" />
		<path
   class="st1"
   d="m 462.4,138.1 c -6.9,6.3 -13.5,8 -21.6,8 -14.7,0 -20.6,-11.1 -16.1,-25.2 4.6,-14.2 17.4,-24.8 30,-24.8 13,0 18.8,10.9 12.2,27.6 h -27 c -1.5,4.9 1.3,9.6 7.8,9.6 4.5,0 11.7,-1.7 18,-5.7 z m -8.3,-21.5 c 1.9,-6.1 0.9,-9.2 -3.2,-9.2 -3.7,0 -6.8,2.7 -8.5,9.2 z"
   id="path20"
   inkscape:connector-curvature="0"
   style="fill:#ffcc00" />
	</g>
	<g
   id="Auto_Parts">
		<path
   class="st1"
   d="M 282.4,149.7 H 309 c 14.9,0 17.8,8 15.1,16.4 -2.6,8.1 -10.6,17.1 -26.9,17.1 h -7.6 l -6,18.6 h -18.2 z m 14.7,23 c 5.1,0 8,-2.5 9.3,-6.5 1.3,-4.1 0,-6.3 -5.3,-6.3 h -4 l -4.1,12.8 z"
   id="path23"
   inkscape:connector-curvature="0"
   style="fill:#ffcc00" />
		<g
   id="g27">
			<path
   class="st1"
   d="m 120.3,149.7 h 17.3 l 4.2,52.2 h -17.2 l -0.1,-8.5 H 104.8 L 99,201.9 H 81.6 Z m 4.1,33 -0.3,-17.6 -12,17.6 z"
   id="path25"
   inkscape:connector-curvature="0"
   style="fill:#ffcc00" />
		</g>
		<path
   class="st1"
   d="m 345.4,202.3 c -7.1,0.5 -10.3,-0.3 -11.3,-3.7 -4.2,2.6 -7.1,3.9 -11.5,3.9 -7.9,0 -9.8,-4.7 -8.1,-9.9 0.8,-2.4 2.5,-4.9 4.9,-6.9 5.1,-4.3 14.9,-4.9 19.7,-8.2 1.1,-3.7 -0.1,-5.8 -4,-5 -5,1 -7.3,2.4 -14.7,6.9 l 3.8,-11.8 c 6.5,-4 11.9,-6.4 18.4,-6.9 8.2,-0.6 14.7,3.8 11.4,14 l -3.7,11.5 c -1.3,4.1 -1.4,5.3 2.6,5.4 z m -8.8,-17 c -3.5,2.2 -8,1.8 -9.4,6.3 -0.7,2.1 0.1,3.7 2,3.7 1.8,0 3.1,-0.9 5.1,-2.2 0,-0.7 0.2,-1.6 0.7,-3 z"
   id="path29"
   inkscape:connector-curvature="0"
   style="fill:#ffcc00" />
		<path
   class="st1"
   d="m 181.3,187 c -1.2,3.7 0.2,5.3 4,4 l -7.1,10.9 c -2.3,0.5 -4.1,0.7 -6.3,0.7 -5.4,0 -7.3,-1.9 -6.7,-7 -4.8,4.7 -9.5,7 -14.4,7 -5.9,0 -11,-3.5 -7.2,-15.3 l 8.3,-25.8 h 14 l -7,21.9 c -1.4,4.3 -0.7,6.1 2.2,6.1 2.1,0 4.1,-1.2 6.8,-4.1 l 7.7,-23.8 h 14 z"
   id="path31"
   inkscape:connector-curvature="0"
   style="fill:#ffcc00" />
		<path
   class="st1"
   d="m 211.9,198 c -4.6,3.1 -9,4.5 -13.7,4.5 -4.2,0 -8,-1.4 -9.6,-4.3 -1.3,-2.3 -1.1,-5.2 0.7,-10.7 l 5.2,-16 h -6.2 l 1.6,-5 22.5,-17.2 h 3.2 l -3.9,12.1 h 11.2 l -3.3,10.1 h -11.2 l -3.9,12.1 c -1.2,3.7 -0.4,5.3 2.5,5.3 2.4,0 5.3,-1 8.8,-3.1 z"
   id="path33"
   inkscape:connector-curvature="0"
   style="fill:#ffcc00" />
		<path
   class="st1"
   d="m 245.9,160.8 c 15.1,0 17.3,11.1 14.2,20.9 -3.5,10.7 -13.4,20.9 -27.5,20.9 -15.1,0 -17.5,-11 -14.3,-20.9 3.4,-10.5 13,-20.9 27.6,-20.9 z m -9.2,28.6 c 4.1,0 7.9,-3.2 9.4,-7.8 1.4,-4.6 -0.3,-7.8 -4.4,-7.8 -4.1,0 -8,3.2 -9.4,7.8 -1.5,4.6 0.3,7.8 4.4,7.8 z"
   id="path35"
   inkscape:connector-curvature="0"
   style="fill:#ffcc00" />
		<path
   class="st1"
   d="m 450.6,174.7 c -3.2,-2.8 -5.8,-4 -8.4,-4 -1.9,0 -3.7,1.1 -4.2,2.8 -1.3,4.1 5.9,3.1 8.9,8.6 1.2,2.1 1.6,5.1 0.5,8.3 -1.6,5 -7.4,12.2 -17.6,12.2 -5.7,0 -10.9,-1.4 -13.9,-3.9 l 3.6,-11.5 c 3.3,4 6,5.5 9.4,5.5 2.2,0 4.1,-1.1 4.7,-3.1 1.7,-5 -13.2,-5 -9.4,-16.9 1.7,-5.1 7,-11.8 18.1,-11.8 5,0 8.2,0.9 11.7,3.3 z"
   id="path37"
   inkscape:connector-curvature="0"
   style="fill:#ffcc00" />
		<path
   class="st1"
   d="m 377,161.5 -3.5,10.8 h 0.1 c 4.9,-7.6 10.1,-11.5 15,-11.5 2.7,0 5.1,1 7.6,3.1 l -11.3,16 c -1.5,-2.4 -3,-3.4 -4.9,-3.4 -3.4,0 -7.1,3.8 -9.3,8.5 l -5.4,16.7 h -14 l 13,-40.4 H 377 Z"
   id="path39"
   inkscape:connector-curvature="0"
   style="fill:#ffcc00" />
		<path
   class="st1"
   d="m 408.7,149.3 -15.6,22.2 h 3.2 l -5.2,16 c -1.8,5.5 -2,8.4 -0.7,10.7 1.6,2.9 5.4,4.3 9.7,4.3 4.7,0 9.1,-1.5 13.7,-4.5 l 3.9,-12.2 c -3.6,2.1 -6.5,3.1 -8.8,3.1 -2.9,0 -3.7,-1.6 -2.5,-5.3 l 3.9,-12.1 h 11.2 l 3.3,-10.1 h -11.2 l 3.9,-12.1 z"
   id="path41"
   inkscape:connector-curvature="0"
   style="fill:#ffcc00" />
	</g>
	<polygon
   id="bar"
   class="st1"
   points="467.3,201.8 505.8,82.8 489.3,82.8 450.8,201.8 "
   style="fill:#ffcc00" />
</g>
<g
   id="flag"
   style="display:inline"
   transform="translate(-40.900002,-41)">
	<path
   d="m 498.5,134.8 -4.8,14.8 -2.4,4.5 -7.7,23.9 -0.5,4.5 -5.8,18.1 c 0,0 8.2,2.6 22.3,4 l 6.1,1.8 c 6.8,0.5 12.7,0.5 19.3,-0.1 3.9,-0.3 8.3,-1.6 12.9,-3 l 7.3,-3.1 c 3.2,-0.7 6.5,-1.2 9.6,-1.1 10.3,0.3 14.7,0.4 14.7,0.4 l 5.1,-15.8 3.1,-6.8 7.7,-23.9 1.4,-7.3 3.9,-12.3 2.3,-4.3 7.7,-23.8 v -2.9 L 607,82.9 c 0,0 -4.5,-0.1 -14.7,-0.6 -3.9,-0.2 -7.8,0.6 -11.8,1.7 l -4.4,0.3 c -4.6,1.4 -9,2.9 -12.9,3.2 -6.6,0.6 -12.5,0.6 -19.4,0.1 l -6.4,0.6 c -14.3,-1.5 -22.7,-4.3 -22.7,-4.3 l -6.2,19.2 -2,3.3 -7.7,23.9 z"
   id="path47"
   inkscape:connector-curvature="0" />
	<path
   class="st2"
   d="m 528.7,134.9 c 6.8,0.5 12.7,0.5 19.3,-0.1 3.9,-0.3 8.3,-1.8 13,-3.2 l 7.7,-23.9 c -4.6,1.4 -9.1,2.8 -13,3.2 -6.6,0.6 -12.5,0.5 -19.3,0.1 z"
   id="path49"
   inkscape:connector-curvature="0"
   style="fill:#ffffff" />
	<path
   class="st2"
   d="m 513.4,182.7 c 6.8,0.5 12.7,0.5 19.3,-0.1 3.9,-0.3 8.3,-1.8 12.9,-3.2 l 7.7,-23.8 c -4.6,1.4 -9.1,2.8 -12.9,3.2 -6.6,0.6 -12.5,0.5 -19.3,0.1 z"
   id="path51"
   inkscape:connector-curvature="0"
   style="fill:#ffffff" />
	<path
   class="st2"
   d="m 576.2,84.3 -7.5,23.5 c 5.6,-1.7 11.5,-3.1 17.1,-2.9 10.5,0.3 15,0.5 15,0.5 l 7.7,-23.7 c 0,0 -4.4,-0.1 -15,-0.6 -5.8,-0.3 -11.7,1.4 -17.3,3.2 z"
   id="path53"
   inkscape:connector-curvature="0"
   style="fill:#ffffff" />
	<path
   class="st2"
   d="m 483.7,178 c 0,0 8.6,2.7 23.4,4.1 2.2,0.2 4.3,0.4 6.3,0.5 l -7.6,23.8 c -2,-0.1 -4.1,-0.3 -6.3,-0.5 -14.8,-1.4 -23.4,-4.1 -23.4,-4.1 z"
   id="path55"
   inkscape:connector-curvature="0"
   style="fill:#ffffff" />
	<path
   class="st2"
   d="M 536.4,111.1 544,87.7 c -2,-0.1 -4,-0.3 -6.2,-0.6 -14.8,-1.5 -23.4,-4.4 -23.4,-4.4 l -7.6,23.7 c 0,0 8.6,2.7 23.4,4.1 2.1,0.3 4.2,0.4 6.2,0.6 z"
   id="path57"
   inkscape:connector-curvature="0"
   style="fill:#ffffff" />
	<path
   class="st2"
   d="m 491.4,154.1 7.7,-23.8 c 0,0 8.6,2.7 23.4,4.1 2.2,0.2 4.3,0.4 6.3,0.5 l -7.7,23.8 c -2,-0.1 -4.1,-0.3 -6.3,-0.5 -14.8,-1.4 -23.4,-4.1 -23.4,-4.1 z"
   id="path59"
   inkscape:connector-curvature="0"
   style="fill:#ffffff" />
	<path
   class="st2"
   d="m 577.7,177 c 0,0 -4.5,-0.1 -15,-0.5 -5.6,-0.2 -11.5,1.2 -17.1,2.9 l -7.7,24 c 5.6,-1.7 11.5,-3.2 17.2,-3.1 10.6,0.2 15,0.4 15,0.4 l 7.6,-23.7"
   id="path61"
   inkscape:connector-curvature="0"
   style="fill:#ffffff" />
	<path
   class="st2"
   d="m 553.3,155.6 7.7,-23.9 c 5.6,-1.7 11.4,-3 17.1,-2.9 10.5,0.3 15,0.5 15,0.5 l -7.7,23.9 c 0,0 -4.4,-0.2 -15,-0.5 -5.7,-0.2 -11.5,1.2 -17.1,2.9 z"
   id="path63"
   inkscape:connector-curvature="0"
   style="fill:#ffffff" />
</g>
<path
   id="reg_trade_mark"
   class="st2"
   d="m 571.5,44.5 c 0,-2.2 1.6,-3.8 3.8,-3.8 2.1,0 3.7,1.7 3.7,3.8 0,2.2 -1.6,3.9 -3.7,3.9 -2.2,-0.1 -3.8,-1.7 -3.8,-3.9 z m 3.8,4.6 c 2.5,0 4.7,-1.9 4.7,-4.6 0,-2.7 -2.2,-4.6 -4.7,-4.6 -2.5,0 -4.7,1.9 -4.7,4.6 0,2.6 2.1,4.6 4.7,4.6 z m -1,-4.3 h 0.9 l 1.4,2.3 h 0.9 L 576,44.8 c 0.8,-0.1 1.4,-0.5 1.4,-1.5 0,-1 -0.6,-1.5 -1.9,-1.5 h -2 v 5.3 h 0.8 z m 0,-0.7 v -1.6 h 1.1 c 0.6,0 1.2,0.1 1.2,0.8 0,0.8 -0.6,0.9 -1.3,0.9 h -1 z"
   inkscape:connector-curvature="0"
   style="display:inline;fill:#ffffff" />

</svg>